# xmcd
#
# Track frame offsets: 
#        150
#        14732
#        33142
#        63460
#
# Disc length: 2255 seconds
#
# Revision: 2
# Processed by: cddbd v1.5.2PL0 Copyright (c) Steve Scherf et al.
# Submitted via: ExactAudioCopyFreeDBPlugin 1.0
#
DISCID=2d08cd04
DTITLE=Lisa Angelle - I Wear Your Love
DYEAR=1999
DGENRE=Country
TTITLE0=I Wear Your Love (Album Version)
TTITLE1=Midnight Rodeo (Album Version)
TTITLE2=I Wear Your Love (Dance Version)
TTITLE3=Data Track
EXTD=
EXTT0=
EXTT1=
EXTT2=
EXTT3=
PLAYORDER=
